<svg xmlns="http://www.w3.org/2000/svg" width="10pt" height="10pt" viewBox="0 0 10 10"><path d="M10 3.977C10 2.738 8.2.668 7.84.266a.466.466 0 00-.664-.02l-.02.02a15.085 15.085 0 00-1.68 2.293 20.78 20.78 0 00-.597-.704.47.47 0 00-.664-.02c-.008.005-.012.013-.02.02a22.02 22.02 0 00-1.722 2.22c-.211-.352-.41-.653-.52-.81a.457.457 0 00-.75 0C.933 3.68 0 5.083 0 5.798a1.592 1.592 0 001.438 1.59 3.183 3.183 0 006.29-.68c-.001-.078-.01-.152-.017-.23A2.5 2.5 0 0010 3.977zm-8.41 2.5a.68.68 0 01-.68-.68c0-.227.309-.836.68-1.438.37.602.683 1.211.683 1.438a.68.68 0 01-.683.68zm2.957 2.5a2.285 2.285 0 01-2.219-1.774c.524-.273.852-.816.856-1.406a2.17 2.17 0 00-.192-.738.65.65 0 01.117-.278 19.73 19.73 0 011.438-1.926c.992 1.176 2.27 2.985 2.27 3.852a2.269 2.269 0 01-2.27 2.27zM7.5 5.57h-.055a11.69 11.69 0 00-1.343-2.222.282.282 0 01.035-.078c.383-.715.84-1.383 1.363-2 .746.91 1.59 2.14 1.59 2.707 0 .878-.711 1.593-1.59 1.593zm0 0"/><path d="M8.676 3.457a4.662 4.662 0 00-.133-.27.227.227 0 00-.313-.07.23.23 0 00-.085.29c.039.07.074.14.105.21a.228.228 0 00.293.133.23.23 0 00.133-.293zm-.422-.742c-.191-.277-.39-.531-.524-.7a.23.23 0 00-.32-.046.229.229 0 00-.047.316 8.87 8.87 0 01.512.684c.07.105.21.133.316.062a.227.227 0 00.063-.316zM5.219 8.164a.228.228 0 00-.282-.152 1.326 1.326 0 01-.39.058.23.23 0 00-.23.227.23.23 0 00.23.226c.176 0 .351-.023.52-.074a.229.229 0 00.152-.285zm1.078-1.976a.222.222 0 00-.281-.153.222.222 0 00-.153.281c.14.477.012.989-.332 1.344a.224.224 0 000 .32c.043.04.094.063.153.067a.232.232 0 00.16-.07c.465-.47.64-1.153.453-1.79zm0 0"/></svg>