<svg xmlns="http://www.w3.org/2000/svg" width="10pt" height="10pt" viewBox="0 0 10 10"><path d="M9.031 5.75a2.12 2.12 0 00-2.094-1.938 3.496 3.496 0 00-.293-1.773.197.197 0 00-.257-.098.195.195 0 00-.098.262 3.083 3.083 0 01.25 1.64 2.15 2.15 0 00-.41.122A2.7 2.7 0 003.477.78 2.7 2.7 0 00.78 3.477 2.688 2.688 0 003 6.129a1.64 1.64 0 00-.02.394A3.103 3.103 0 01.39 3.477a3.087 3.087 0 014.989-2.43c.086.066.207.05.273-.035a.197.197 0 00-.03-.274A3.48 3.48 0 00.926 5.84c.565.61 1.315.992 2.132 1.09a1.642 1.642 0 001.554 1.117h4.23A1.16 1.16 0 0010 6.89c0-.575-.422-1.051-.969-1.141zm-7.86-2.273a2.309 2.309 0 012.306-2.305 2.309 2.309 0 012.18 3.058 2.043 2.043 0 00-.555.618 1.64 1.64 0 00-1.988.906 2.326 2.326 0 01-1.942-2.277zm7.673 4.18h-4.23a1.247 1.247 0 11.5-2.391c.312.14.558.406.675.726a.192.192 0 00.25.121.196.196 0 00.117-.25 1.625 1.625 0 00-.699-.855 1.731 1.731 0 013.184.742 1.185 1.185 0 00-.426.168.196.196 0 10.215.328.766.766 0 11.414 1.41zm0 0"/><path d="M6.254 1.45c0 .109-.09.195-.195.195a.193.193 0 01-.196-.196.196.196 0 01.39 0zM3.973 4.027a.577.577 0 00.03-.562l-.35-.742a.192.192 0 00-.352 0l-.352.742a.583.583 0 00.527.836.583.583 0 00.497-.274zm-.66-.207a.19.19 0 01-.012-.187l.176-.371.175.37a.19.19 0 01-.011.188.188.188 0 01-.164.09.188.188 0 01-.164-.09zm.164-1.672a.193.193 0 00.195-.195v-.195a.193.193 0 00-.195-.196.193.193 0 00-.196.196v.195c0 .11.086.195.196.195zm-1.079-.023a.189.189 0 00-.273 0 .189.189 0 000 .273l.137.141a.202.202 0 00.277 0 .2.2 0 000-.277zm-.25 1.352a.193.193 0 00-.195-.196h-.195a.193.193 0 00-.196.196c0 .109.086.195.196.195h.195c.11 0 .195-.086.195-.195zm.114.937l-.137.14a.189.189 0 000 .274.19.19 0 00.273 0l.141-.137a.2.2 0 000-.277.2.2 0 00-.277 0zm2.543-.937c0 .109.086.195.195.195h.195c.11 0 .196-.086.196-.195a.193.193 0 00-.196-.196H5a.193.193 0 00-.195.196zm-.25-.883c.05 0 .097-.02.136-.055l.137-.14a.189.189 0 000-.274.189.189 0 00-.273 0l-.14.137a.2.2 0 000 .277.209.209 0 00.14.055zm.343 5.937a.198.198 0 00-.335 0l-.34.57a.577.577 0 00-.008.598.582.582 0 00.515.301.59.59 0 00.516-.3.585.585 0 00-.008-.598zm.008.977a.196.196 0 01-.176.101.196.196 0 01-.175-.101.198.198 0 010-.207l.175-.29.172.29a.192.192 0 01.004.207zm1.75-.977a.198.198 0 00-.336 0l-.34.57a.577.577 0 00-.007.598.582.582 0 00.515.301.59.59 0 00.516-.3.585.585 0 00-.008-.598zm.008.977a.196.196 0 01-.176.101.196.196 0 01-.176-.101.198.198 0 010-.207l.176-.29.172.29a.2.2 0 01.004.207zm1.75-.977a.198.198 0 00-.336 0l-.34.57a.577.577 0 00-.008.598.583.583 0 00.516.301.59.59 0 00.516-.3.585.585 0 00-.008-.598zm.008.977a.196.196 0 01-.176.101.196.196 0 01-.176-.101.198.198 0 010-.207l.176-.29.172.29a.2.2 0 01.004.207zm0 0"/></svg>