<svg xmlns="http://www.w3.org/2000/svg" width="10pt" height="10pt" viewBox="0 0 10 10"><path d="M.516 5.43H.172a.174.174 0 000 .348h.344a.175.175 0 00.175-.176.174.174 0 00-.175-.172zm1.207 0h-.688a.17.17 0 00-.172.172c0 .097.075.175.172.175h.688a.175.175 0 00.175-.175.174.174 0 00-.175-.172zm7.414 0h-.86a.174.174 0 00-.175.172c0 .097.078.175.175.175h.86a.172.172 0 00.172-.175.17.17 0 00-.172-.172zm.691 0h-.172a.17.17 0 00-.172.172c0 .097.075.175.172.175h.172a.174.174 0 000-.347zM5 1.293a.173.173 0 00-.172.172v.863c0 .094.078.172.172.172a.173.173 0 00.172-.172v-.863A.173.173 0 005 1.293zm0-.691a.174.174 0 00-.172.175V.95c0 .094.078.172.172.172A.173.173 0 005.172.95V.777A.174.174 0 005 .602zM2.09 4.25a.302.302 0 00-.063-.027l-.582-.243a.176.176 0 00-.23.083.172.172 0 00.082.23c.004.004.012.004.02.008l.581.234a.171.171 0 00.239-.047.174.174 0 00-.047-.238zM.926 3.77l-.13-.051a.172.172 0 10-.128.32l.129.055a.137.137 0 00.066.008.168.168 0 00.172-.168.167.167 0 00-.11-.164zm5.676-2.16a.175.175 0 00-.211.09l-.325.8a.177.177 0 00.094.227.176.176 0 00.227-.094l.324-.805a.173.173 0 00-.11-.219zM6.86.977a.17.17 0 00-.212.086l-.085.207a.176.176 0 00.093.226h.004a.171.171 0 00.223-.094l.086-.21a.168.168 0 00-.11-.215zm1.59 3.246a.173.173 0 00-.22-.11c-.003 0-.011.004-.02.008l-.237.102a.173.173 0 00.07.34.161.161 0 00.059-.028l.238-.094a.17.17 0 00.11-.218zm1.206-.493a.173.173 0 00-.219-.109c-.003.004-.011.004-.019.008l-.688.277a.171.171 0 00.063.336.132.132 0 00.066-.02l.688-.273a.173.173 0 00.11-.219zM3.934 2.5l-.098-.238a.174.174 0 00-.227-.098.179.179 0 00-.093.227l.105.242c.05.078.16.097.238.047a.178.178 0 00.075-.18zm-.329-.8l-.253-.637a.174.174 0 00-.23-.083.175.175 0 00-.09.211l.257.637c.04.086.145.121.23.082a.173.173 0 00.086-.21zm4.512.734a.18.18 0 00-.187 0l-.73.73a.177.177 0 000 .246.17.17 0 00.116.05c.047 0 .09-.019.125-.05l.727-.738a.175.175 0 00-.05-.238zm-5.312.73l-.735-.73a.173.173 0 00-.238.238l.73.738c.07.059.18.05.243-.02a.177.177 0 000-.226zm0 0"/><path d="M5.59 2.918a2.759 2.759 0 00-3.285 3.285.343.343 0 00.41.262.345.345 0 00.265-.41 2.065 2.065 0 011.58-2.461 2.074 2.074 0 012.464 2.46.34.34 0 00.262.41.346.346 0 00.41-.26A2.76 2.76 0 005.59 2.917zm0 0"/><path d="M9.484 6.809H5.172V5.332l.652.652c.07.07.18.07.246.004a.177.177 0 000-.246l-.949-.949a.172.172 0 00-.242 0l-.953.957a.172.172 0 00-.02.242c.063.07.172.078.242.02.008-.008.016-.012.02-.02l.66-.664v1.48H.516a.348.348 0 00-.344.348c0 .188.156.344.344.344h4.312v.7A.17.17 0 005 8.37a.17.17 0 00.172-.172V7.5h4.312a.347.347 0 00.344-.344.348.348 0 00-.344-.347zM5 8.707a.173.173 0 00-.172.172v.344c0 .097.078.175.172.175a.174.174 0 00.172-.175v-.344A.173.173 0 005 8.707zm0 0"/></svg>