<svg xmlns="http://www.w3.org/2000/svg" width="10pt" height="10pt" viewBox="0 0 10 10"><path d="M5.086 4.738a.174.174 0 00-.172.176v.348c0 .097.078.176.172.176a.175.175 0 00.176-.176v-.348a.175.175 0 00-.176-.176zm-4.559.7H.176A.175.175 0 000 5.612c0 .098.078.176.176.176h.351a.175.175 0 00.176-.176.175.175 0 00-.176-.176zm1.227 0H1.05a.174.174 0 00-.172.175c0 .098.078.176.172.176h.703a.175.175 0 00.176-.176.175.175 0 00-.176-.176zm7.543 0h-.875a.175.175 0 00-.176.175c0 .098.078.176.176.176h.875a.175.175 0 00.176-.176.175.175 0 00-.176-.176zM5.086 1.227a.174.174 0 00-.172.175v.88c0 .097.078.175.172.175a.175.175 0 00.176-.176v-.879a.175.175 0 00-.176-.175zm0-.7a.174.174 0 00-.172.176V.88a.174.174 0 00.348 0V.703a.175.175 0 00-.176-.176zM2.125 4.238a.128.128 0 00-.063-.027l-.593-.246a.173.173 0 00-.235.082.178.178 0 00.086.234c.004 0 .012.004.02.008l.59.238a.174.174 0 00.242-.047.171.171 0 00-.047-.242zM.945 3.75L.81 3.695a.174.174 0 00-.227.098.175.175 0 00.098.23l.132.055c.02.008.043.012.067.008a.175.175 0 00.066-.336zm5.774-2.2a.174.174 0 00-.215.09l-.332.817a.174.174 0 00.098.227v.003a.18.18 0 00.23-.097l.328-.817a.176.176 0 00-.11-.222zM6.98.902a.178.178 0 00-.214.094l-.086.211a.17.17 0 00.093.227h.004a.17.17 0 00.227-.094l.086-.215a.174.174 0 00-.11-.223zm1.618 3.305a.176.176 0 00-.243-.102l-.242.106a.174.174 0 00-.136.207c.02.094.113.156.207.137a.174.174 0 00.062-.028l.242-.097a.176.176 0 00.11-.223zm1.23-.5a.178.178 0 00-.223-.11.03.03 0 00-.02.008l-.702.282a.176.176 0 00-.125.215.18.18 0 00.191.128.194.194 0 00.067-.02l.699-.28a.178.178 0 00.113-.223zM4 2.457l-.098-.246a.172.172 0 00-.23-.094.17.17 0 00-.094.227l.106.246a.172.172 0 00.242.047c.062-.04.09-.11.074-.18zm-.328-.817L3.41.993A.176.176 0 003.176.91a.178.178 0 00-.09.215l.258.648a.18.18 0 00.234.082.178.178 0 00.094-.214zm4.586.75a.165.165 0 00-.188 0l-.742.743c-.07.07-.07.18-.004.25.031.031.074.05.121.05s.09-.019.125-.05l.742-.75a.176.176 0 00-.054-.242zm-5.403.743l-.75-.742a.173.173 0 00-.242.054.18.18 0 000 .188l.742.746a.178.178 0 00.25-.016.182.182 0 000-.23zm0 0"/><path d="M5.688 2.879a2.812 2.812 0 00-3.344 3.344.351.351 0 10.688-.148A2.104 2.104 0 014.64 3.57a2.101 2.101 0 012.504 2.504.354.354 0 00.27.418.348.348 0 00.413-.27 2.806 2.806 0 00-2.14-3.343zm0 0"/><path d="M9.648 6.844H5.262v-.89a.178.178 0 00-.176-.177.177.177 0 00-.172.176v.89H.527a.35.35 0 100 .7h4.387v1.332l-.668-.668a.17.17 0 00-.246 0 .17.17 0 000 .246l.965.965a.16.16 0 00.12.055.167.167 0 00.138-.067l.953-.953a.174.174 0 00-.02-.246.168.168 0 00-.226 0l-.668.668V7.543h4.386a.35.35 0 100-.7zm0 0"/></svg>