<svg xmlns="http://www.w3.org/2000/svg" width="10pt" height="10pt" viewBox="0 0 10 10"><path d="M.848 4.027H.34a.34.34 0 000 .68h.508a.34.34 0 000-.68zm6.187-2.879H6.95c-.488 0-.949.207-1.27.575a.336.336 0 00-.019.48c.125.137.34.145.477.016a.337.337 0 00.05-.055 1.02 1.02 0 01.762-.34h.086a1.103 1.103 0 010 2.203H1.863a.337.337 0 00-.336.34c0 .188.149.34.336.34h5.172a1.78 1.78 0 000-3.559zm0 0"/><path d="M9.41 2.336a.167.167 0 00-.215-.102.166.166 0 00-.11.18 1.96 1.96 0 01-.452 1.84.168.168 0 00.012.238.171.171 0 00.238-.008 2.3 2.3 0 00.527-2.148zm-.215-.539a2.263 2.263 0 00-.313-.426.166.166 0 00-.234-.047.17.17 0 00-.046.235.224.224 0 00.043.043c.093.109.18.226.25.351a.168.168 0 00.226.07.17.17 0 00.074-.226zm-.707-.77l-.015-.011A1.982 1.982 0 008.305.91a.172.172 0 00-.235.063.173.173 0 00.067.234c.05.027.101.059.148.09a.17.17 0 00.238-.035.165.165 0 00-.035-.235zM5.633 2.336a.34.34 0 00-.38.297 1.9 1.9 0 000 .21c0 .188.153.337.34.337.188 0 .34-.149.34-.336a.71.71 0 010-.13.343.343 0 00-.3-.378zM6.64 5.867a1.438 1.438 0 00-.624-.144h-3.98a.34.34 0 000 .68h3.98c.421 0 .765.34.765.761a.767.767 0 01-.078.332.344.344 0 00.16.453.343.343 0 00.453-.16 1.44 1.44 0 00-.675-1.922zm0 0"/><path d="M6.758 8.05v-.003a.339.339 0 00-.446-.18.834.834 0 01-.167.051.338.338 0 00-.313.363.338.338 0 00.363.313h.055c.117-.016.23-.047.34-.094a.337.337 0 00.168-.45zm-1.184-.226a.677.677 0 01-.32-.574.34.34 0 00-.34-.34.337.337 0 00-.336.34c-.004.469.238.902.637 1.148a.336.336 0 00.465-.105.34.34 0 00-.106-.469zm2.192-1.812a2.568 2.568 0 00-.188-.223.167.167 0 00-.238 0 .164.164 0 00-.004.238 2.3 2.3 0 01.152.18.17.17 0 00.239.031.17.17 0 00.039-.226zm.316.691a.168.168 0 00-.2-.133H7.88a.169.169 0 00-.125.203 1.602 1.602 0 01-.266 1.325.173.173 0 00.032.238c.074.059.18.043.238-.031l.008-.008a1.96 1.96 0 00.37-1.14c0-.153-.019-.305-.054-.454zM7.36 8.5a.173.173 0 00-.243-.031c-.12.09-.258.16-.402.21a.174.174 0 00-.102.22c.024.07.094.113.168.113A.12.12 0 006.836 9a1.87 1.87 0 00.488-.258.17.17 0 00.036-.242zm-1.18.273h-.14a.17.17 0 00-.169.172c0 .094.074.168.168.168h.14a.167.167 0 00.169-.168.17.17 0 00-.168-.172zm1.11-3.726h-.51a.17.17 0 00-.172.168c0 .094.079.172.172.172h.508a.17.17 0 00.168-.172.167.167 0 00-.168-.168zm-3.9 0h-.34a.167.167 0 00-.167.168.17.17 0 00.168.172h.34a.17.17 0 00.168-.172.167.167 0 00-.168-.168zm2.544 0H4.066a.167.167 0 00-.168.168.17.17 0 00.168.172h1.868a.17.17 0 00.168-.172.167.167 0 00-.168-.168zm-4.071 0H.68a.17.17 0 00-.172.168c0 .094.078.172.172.172h1.183a.173.173 0 00.172-.172.17.17 0 00-.172-.168zM1.527 6.57h-.34a.173.173 0 00-.171.172.17.17 0 00.171.168h.34a.17.17 0 00.168-.168.173.173 0 00-.168-.172zm1.692 0H2.203a.17.17 0 00-.168.172c0 .094.074.168.168.168H3.22a.17.17 0 00.172-.168.173.173 0 00-.172-.172zm5.933-1.523H7.965a.167.167 0 00-.168.168.17.17 0 00.168.172h1.187a.507.507 0 110 1.015.34.34 0 01-.34-.34.167.167 0 00-.167-.167.17.17 0 00-.172.168c0 .375.304.68.68.68a.847.847 0 100-1.696zM1.695 3.52h-.168a.173.173 0 00-.172.171.17.17 0 00.172.168h.168a.167.167 0 00.168-.168.17.17 0 00-.168-.171zM3.7 2.656h-.063a.493.493 0 00-.492.496c0 .094.074.168.167.168a.17.17 0 00.172-.168c0-.086.067-.156.153-.156.144.012.254.14.242.285a.26.26 0 01-.242.239H2.37a.17.17 0 00-.168.171c0 .094.074.168.168.168h1.266A.602.602 0 003.7 2.656zm0 0"/></svg>