<svg xmlns="http://www.w3.org/2000/svg" width="793.701" height="1122.52" viewBox="0 0 210 297" xmlns:v="https://vecta.io/nano"><defs><filter id="A" x="0" y="0" width="1" height="1" color-interpolation-filters="sRGB"><feTurbulence baseFrequency="0.09" numOctaves="5" type="fractalNoise"/><feColorMatrix values="1 0 0 0 0 0 1 0 0 0 0 0 1 0 0 0 0 0 4.9 -2.9 "/><feComposite operator="in" in="SourceGraphic"/><feMorphology result="C" radius="6" operator="dilate"/><feTurbulence baseFrequency="0.2" type="fractalNoise"/><feDisplacementMap scale="15" yChannelSelector="G" xChannelSelector="R" in="C"/><feComposite operator="arithmetic" k1="0.5" k3="1" k2="0" k4="0"/><feConvolveMatrix order="3 3" kernelMatrix="1 0 0 0 2 0 0 0 -1 " targetX="0" targetY="0" divisor="1.5"/></filter></defs><g fill="#ffe6d5"><path d="M.048 55.13h209.914v229.672H.048z"/><path d="M.048 55.575h210.359v229.227H.048z" filter="url(#A)"/></g><path d="M106.34 71.529c-13.818 0-26.976 2.86-38.916 8.016-.072.161-.24.274-.435.274a.34.34 0 0 1-.132-.028 97.99 97.99 0 0 0-3.454 1.597c.018.068.04.133.04.218 0 .246-.213.446-.473.446-.215 0-.304-.14-.245-.327-26.338 13.065-46.021 37.576-52.51 67.004h10.254c9.494-38.617 44.294-67.2 85.872-67.2 16.076 0 31.137 4.276 44.116 11.75.124-.038.233-.039.294.022.042.042.037.095.013.152 20.434 11.877 35.656 31.706 41.45 55.275h10.254c-1.811-8.212-4.65-16.041-8.374-23.346l-.042-.018c-.706-.303-.739-.383-.179-.411a98.9 98.9 0 0 0-18.05-24.664 2.41 2.41 0 0 0-.86-.088c-.675.058-1.228-.084-1.228-.315 0-.287.555-.473 1.181-.487-6.879-6.688-14.73-12.38-23.32-16.843-.388.397-.649.403-1.415.094-.406-.164-.596-.654-.534-1.08a97.73 97.73 0 0 0-16.712-6.39c.003.222-.148.18-.37-.103a98.27 98.27 0 0 0-26.223-3.547zm-14.895 2.246a.3.3 0 0 1 .175.045c.554.342.503.506-.247.794-.432.166-.565.034-.4-.396.102-.266.291-.433.472-.442zm6.938 6.051c.43-.004.781.194.781.44 0 .545-.05.545-.893 0-.572-.37-.556-.434.112-.44zm39.491 1.339a1.04 1.04 0 0 1 .808.44c.343.554.188.554-.67 0-.402-.26-.458-.436-.138-.44zm-44.551.942c.155.006.289.047.363.121.148.148-.115.254-.586.235-.52-.021-.626-.127-.27-.27.161-.064.338-.093.493-.086zm-12.045.391c.26 0 .473.201.473.446s-.089.446-.197.446-.321-.201-.473-.446-.063-.446.197-.446zm62.725.9c.266.004.187.194-.175.423-.538.34-.456.498.446.858 1.025.409 1.036.443.148.469-.526.016-1.065-.254-1.197-.598-.268-.698.046-1.163.777-1.153zm-81.49 1.388c.155.006.289.048.363.122.148.148-.115.254-.586.235-.52-.021-.626-.128-.27-.27.161-.064.338-.093.493-.086zm93.557.838c.383 0 .696.201.696.446s-.189.446-.42.446-.544-.201-.696-.446.037-.446.42-.446zm3.162 10.286c.139.026.165.148.024.377-.133.216-.698.507-1.254.648-.976.246-.981.233-.145-.392.6-.448 1.144-.675 1.376-.632zm16.378 6.318c.042-.025.15.012.318.116.3.185.435.448.299.583s.103.511.529.834c.701.532.657.589-.454.602-.675.007-1.228-.175-1.228-.406s.204-.546.454-.701.319-.499.155-.765c-.092-.149-.115-.238-.072-.264zm.766 3.716a1.02 1.02 0 0 1 .275.064c.923.354.814.603-.264.603-.506 0-.8-.192-.655-.427.109-.176.369-.265.644-.24zm-70.034 1.011a62.96 62.96 0 0 0-16.021 2.072c-.163.206-.382.265-.684.18-19.818 5.447-35.747 20.336-42.626 39.522h5.323c5.015-12.762 14.42-23.307 26.36-29.785-.449.106-.518.072-.063-.218.234-.149.751-.302 1.337-.444a57.81 57.81 0 0 1 26.374-6.327c16.755 0 31.833 7.086 42.417 18.423.181-.059.362-.101.527-.101.743 0 .8.112.337.67-.05.061-.122.115-.189.171 4.622 5.125 8.348 11.075 10.916 17.611h5.323c-8.726-24.338-32.012-41.774-59.332-41.774zm-79.263 6.8c.383 0 .572.201.42.446s-.465.446-.696.446-.42-.201-.42-.446.313-.446.696-.446zm156.703.149c.347 0 .527.168.4.373s-.307.372-.4.372-.274-.167-.4-.372.054-.373.4-.373zm-106.999.796c.613.044.605.084-.055.256-.43.112-.781.39-.781.618s-.226.413-.501.413c-.346 0-.329-.207.055-.67.306-.368.883-.647 1.283-.618zm108.113.079a.72.72 0 0 1 .525.214c.285.285.013.437-.781.437-1.028 0-1.097-.068-.437-.437.255-.142.488-.214.693-.214zm-4.808 1.259c.245-.016.345.085.345.299 0 .192-.552.38-1.228.417-1.06.059-1.105.015-.335-.318.582-.251.972-.383 1.218-.398zm-105.533.882c.204.046.352.489.323 1.3-.046 1.309-.565 1.609-2.381 1.377-.301-.038-1.145.239-1.876.617-1.787.924-2.118.865-1.149-.206.534-.59 1.375-.893 2.477-.893 1.407 0 1.712-.175 1.949-1.116.194-.774.454-1.124.657-1.078zm108.091 3.553c.505-.024.763.194.763.651 0 .368-.017.646-.037.617s-.64-.185-1.377-.347c-1.111-.244-1.2-.349-.521-.617.478-.188.869-.29 1.172-.304zm4.508 1.381c.38.048.87.464.87.859 0 .571-.771.532-1.135-.056-.162-.262-.187-.583-.056-.714.08-.08.194-.105.321-.089zm-2.131 1.002c.047-.047.109.016.18.194.129.322.113.707-.035.856s-.254-.115-.235-.586c.011-.26.042-.417.089-.464zm2.299 8.601c.28-.015.671.044 1.149.186.614.182.882.352.595.376s-.819.159-1.183.298-.785.053-.937-.192c-.252-.408-.091-.643.376-.668zm8.713 12.663c.26 0 .473.201.473.446s-.089.446-.197.446-.321-.201-.473-.446-.063-.446.197-.446zm-82.366 8.861c-.117.01-.609.197-.755.459-.236-.007-.533-.041-.677-.15-.13.52-.038.464-.316.357-.032-.065-.248-.003-.501-.176-.29.021-.031.721-.551 1.035-.417.915-.213 2.046-.523 2.407-.388.996-.715 1.175-.956 1.439-1.387 2.66-2.363 5.325-3.085 7.209-.75 1.759-.865 2.813-1.208 3.445-.15.015-3.194 8.255-2.882 8.214.166-.168-2.618 7.356-2.815 7.399.005.077.057.759-.039 1.117a.36.36 0 0 1 .088-.015c.356.03-.161.503-.24.583.094-.044.363-.448.401-.367-.101.299 2.815.378 2.724.345.28-.009 2.374-.076 2.545.051.111-.338.354-.329.318-.883-.128-.525-.097-1.737.725-2.764.439-1.449.968-1.991.914-2.53.493-.416.846-.187.898-.446.17-.313 1.363-.735 1.698-.529.912-.192 1.366.214 2.732.098.023.04 1.981-.496 1.855-.123-.077.137 1.998.174 2.017.068.866-.243 1.733-.334 2.355.029.843-.176 1.532-.312 1.999-.289.1.437.791.193 1.025.75.265.123.424.428.528.819.092.061.172.128.218.202.175.284.113.424-.103.423.078.586.105 1.243.171 1.797.145 1.254.723 1.303 1.049 2.155.703.307.304.609.581 1.038.217-.165.577.287.743.342.086.049.291-.305.417-.251.237-.267.948.405 1.101-.097.002.028.216-.088.492-.247.175.133.4.327.456.088.126-.218.549-.33.973-.151.385-.102-.149.234.259.203.152-.158.593.287.807.106-.003.043.01.007.022-.03.234-.032.395-.19.588-.317-.103-.149-.133-1.584-1.358-4.423-.149-.326-.319-.754-.477-1.122-.47-.027-.565-.128-.223-.265.032-.013.066-.018.098-.027-1.282-3.038-2.828-7.273-4.863-12.058-1.721-4.338-3.597-7.324-4.31-9.522-1.006-2.16-1.196-3.88-1.442-3.974-.242-.315.145-.805-.261-.885.197-.125.188-.077.076-.237-.059.022-.22-.006-.088.134-.365-.361-.63-.204-.915-.152-.108.035-.669.078-.686.221-.516-.191-.085-.529-.604-.301-.268.037-.475-.137-.413.216.039-.259-.555-.08-.617-.364.071-.04.074-.056.035-.052zm-14.308 32.755c-.264.069-.518.388-.195.216.098.021.157-.074.195-.216zM64.34 153.323c-.908-.023-1.708.376-2.6.394-1.449.048-1.974.022-2.91.2-1.027-.039-1.39-.343-2.358-.063-.437.196-.814.498-.682.707-.37.246-.582-.36-.652-.214-.092-.048-.413.122-.169.168-.179.202.12.101.036.283-.047 2.62-.146 5.439.454 7.844-.01 2.799-.096 5.122.203 7.617-.429.762-.043 1.498-.262 3.01-.116 1.226-.175 2.814-.059 4.664.325 1.522-.29 3.273-.129 4.62-.344 1.159-.107 2.787-.163 3.448.153-.055.145-.152.589-.03.103.122-.084.15.018.159.116.254.313-.29.429-.075.534-.47.827-.047 1.168-.109.392-.03.266-.219.752-.241.274.165-.116.335.175.285.215.142.439.396.502.149.507.329.689.311 1 .308.362-.156.783-.751.731-.422.097.095.504.178.342.204.615-.002.087-.558.548-.399.019-.503-.271.016-.272-.197a21.45 21.45 0 0 1 .291-2.008c-.336-1.138.456-2.174.222-3.295-.134-1.084-.45-1.199-.623-2.018-.228-1.264-.183-1.454-.108-2.163-.032-.334.237-.428.276-.727.083-.147.273-.603.444-.435-.01.323.654.353 1.224.159.592-.025 1.429-.518 2.551-.423.559-.113 1.258.603 1.739.231.495.034.298.431.405-.112.572.224.773.191 1.072.196.399-.016.365.272.443.755 1.063 2.573 1.816 5.393 2.638 6.884 1.067 1.66 1.09 2.103 1.674 2.655.575.367.282.187.444.31.12.531.301.383.402.23.041.239.387-.105.636.048.166.202-.107.021.49.039.988.262.672.298.893.189.379.041.438.031.749.153.56-.095.025-.083.608-.392.268-.221.513.19.677.203.274-.214.611-.082 1.089-.01.104.016.318-.292.525-.381.071-.246.045.634.213.56.182-.079.149-.474.023-.316.013-.048-.303-1.313-.896-1.994-.453-1.549-.756-2.288-1.946-4.156-.646-1.828-1.118-3.337-1.71-4.488-.426-.753-.936-1.416-.948-1.59.246-.165.441-.423.808-.449 1.055-.547 1.625-1.499 2.018-1.959.597-.616.522-1.744.847-2.338.101-.373.915-1.399 1.284-2.214.253-.793-.33-2.371-.189-3.236-.048-1.556-.365-2.597-.942-4.157-.609-1.236-.477-1.898-2.07-3.062-.919-1.044-2.716-1.995-3.803-2.256-1.425-.262-3.387.034-4.713-.129.161-.009.254-.172.245-.384-.567.17-1.9.094-2.723-.037-.334-.131-.65-.186-.952-.193zm109.617.076c-.038-.006-.073.013-.094.075-1.432.049-1.665.475-3.288 1.043-1.303.165-2.255.64-3.199 1.33-.703.794-1.378 2.431-1.971 3.398-.188 1.349-1.467 2.481-1.418 4.021-.136 1.439.691 2.408.969 3.355.47 1.085 1.72 2.212 2.428 2.97.283.151-.306-.063.917.299.548.559 2.676 2.03 4.577 2.58.723.349 1.966.884 2.09 1.609.15.644.39 1.521.477 2.388-.292 1.841-.34 2.639-1.601 3.185-1.426.494-3.255.938-5.598 1.09-.083-.285-.374.461-.776.183-.221-.031-.44-.539-.817-.332-.446.168-.093.245-.714.208.061-.115-1.025-.219-1.095-.242-.196.244-.119.09-.202-.036-.047.156-.222.578.006.698-.192.054-.066-.29-.207.098-.154-.17.195.202.311.348.021.367.27.539.13 1.151-.161.144.677.529.497.849.119.569.441.512.623 1.104.297.752-.831 1.134-.954 1.325.135.495 1.046.573 1.268.581.615-.006.629-.64 1.719-.392 1.901.185 3.356-.172 4.982-.312 1.73-.32 2.842-1.035 4.315-1.914 1.766-.695 2.811-2.515 3.019-3.894.711-1.408 1.13-2.488.958-4.245-.107-1.214.024-2.992-.541-3.962-.507-1.095-1.33-1.677-2.416-2.449-.012-.059-.687-.597-1.559-1.052-1.15-.837-2.348-1.254-4.199-1.889-1.018-.955-1.305-.892-2.045-1.767-.348-.629-.672-1.226-1.022-2.082-.297-1.183 1.267-1.959 1.701-2.613.554-.849 1.669-.97 3.084-1.104.295.413.878.062 1.357.328.847.005 1.493.036 2.032.262.699.229 1.65.886 1.851 1.066.279.257.094.142.416.119-.108-.487.316.155.587.044.079.279.02-.21-.093-.067.157-.554.17-1.335.161-1.547.246-.276.872-.762.981-1.02.25-.777.538-.883.579-1.026.242-.517-.347-.694.212-.787.048-.071.215-.224.069-.198-.006.01-.004.015-.013.026-.01-.005-.018-.013-.028-.018-.014.004-.014 0-.031.006 0-.01.005-.013.007-.022-.674-.399-1.07-1.166-1.866-1.133-.761-.583-1.19-.478-2.021-.68-.663-.137-1.603-.869-2.073-.643-.92-.021-1.821-.237-2.314-.09.032-.045-.076-.208-.168-.223zm8.442 2.769c.008.005.016.011.024.016.018-.005.028-.006.041-.008.085-.135-.044-.153-.065-.007zm-17.757 24.355c.017-.056.018-.082-.024-.04.013.012.015.026.024.04zm-32.155-26.994c.051.036.164.126.146.16-.039.067-.402.106-.226.584-.131.928-.385 2.346-.318 3.388-.071.914.694 3.318.399 4.96.056 1.562.061 3.456-.142 4.605.046.867.248 2.394.302 3.126-.033.49.18 1.239.301 2.035.048-.079.109-.137.19-.137.224 0 .407.163.407.361s.552.565 1.228.814l1.228.454-1.451-.033-1.485-.033c-.006 0-.039-.174-.054-.227-.005.052-.003.104-.01.155-.042.507-.145 1.012-.259 1.532.399.503.393.634-.073.335-.17.749-.356 1.55-.456 2.498-.021 1.641.445 3.012.269 4.108-.149 1.21-.338 2.576-.242 3.336.042.286.12.307-.033.413-.037.262.435-.05.742.168.496-.297.915-.296 1.241-.113.499-.207 1.445-.315 2.209-.063.585.095 1.243-.151 1.627-.286.559-.06 1.69.349 1.87.278.567-.177.444.073 1.188-.27.583.027 1.111.513 1.943.405a4.58 4.58 0 0 1 2.19.16c.47.315 1.195-.011 1.587-.01 1.886-.193 4.087-.546 5.587-1.259 1.933-.805 2.852-2.045 4.256-3.91 1.417-2.061 2.145-3.454 2.618-5.206.416-1.668 1.57-4.053 1.556-6.244.012-1.597-.831-1.62-.846-3.06-.356-1.368-.343-2.854-.946-3.795-.046-1.121-1.126-2.256-2.073-3.045-.566-.975-1.332-1.942-2.387-2.6-.975-1.263-2.854-1.908-4.832-2.169-1.983-.415-4.692-1.139-7.162-1.152-.231.127.022-.098-.553-.204-.154-.163-.842.239-1.514.557-.515-.1-1.388.394-1.663.192-.254.107-.646-.016-.571-.027-.162.169-.783-.204-1.202.039-.523.091-1.398-.736-1.963-.317-.823.056-.458-.435-.886-.15-.311.259-1.204.005-1.514-.095-.4.233.095-.066.004-.097-.267-.18-.279-.197-.228-.161zm-81.633.04c-.031.006-.068.023-.112.055-.052.009-.094.182-.07.255-2.321.019-3.478.39-5.482.378-1.444.368-3.591-.305-4.542-.262-1.114.071-2.593-.472-3.565-.053-1.183.045-2.418 1.088-3.34.605-.996-.363-1.667-.508-2.342-.469-.594-.057.037.107-.562-.114-.204-.123-.494.13-.559.259-.113-.371-.3.274-.334.464-.015-.099-.117-.111-.012.055.148-.069.37.214.098.435.231 3.989.487 7.032.3 9.873.337 2.355-.091 4.408.246 5.125-.335.643-.115 2.103.11 3.408-.002 1.312-.021 3.102-.172 4.613.099 1.848-.095 2.818-.262 4.231-.336 1.308-.012 2.203-.269 3.147-.067.164.09.094.127.297.449.057.439.364.443.185-.151-.044.705-.255.689-.265.234.322.043.172.387.217.423-.501 1.066-.025 1.126-.105.546.438-.225-.422.126-.292.352.189.61.008.866.139.312.056.245.819.744.594.137.226 1.085-.477.977-.125.503.466.316.062.344.112.041-.205-.371-.267.135-.604.543-.241.623-.229.274-.294-.375-.877.198-1.405.14-2.36-.515-1.224-.055-2.813-.03-3.841.182-1.118.129-2.39.203-3.616.106-1.038-.329-2.155-.39-2.675-.132-.185.135-.356.301-.439.358.013.512.244.816-.048.047.244.449-.376.886-.402.341-.001 1.478.457 2.433.489.515.042 1.318-.662 2.254-.449.615-.016 1.365.381 2.176.408 1.502.203 2.493-.375 3.18-.391.63.113 1.397-.193 1.984.418.174.068-.082.324.304-.036-.061-.053-.081-.061-.107-.076.042.001.095-.036.111-.195.129-.337.072.516.082-.159.158-.623.152-1.311.302-1.429-.181-.513-.46-.337-.314-.517-.141-.188-.311-.32-.131-.263-.375-.121.163-.356.018-.862-.195-.312-.199-.062-.207-.341-.123-.379.553-.678.656-.8-.048-.587-.398-.372-.338-.496.177-.11.306-.096.373-.071a.7.7 0 0 1-.136-.11c.02-.009-.277-.252-.146-.116-1.126.009-2.053.004-3.134-.134-.987.331-3.094.09-4.143.184-2.019.027-2.487.404-3.677.414-1.697-.039-1.966.047-2.538-.237-.498.278-1.046.626-.927.082-.227-.335.081-1.363.037-1.692-.145.272-.449-2.207-.128-2.537-.058-.047.623-3.08.491-3.077-.029-.391-.154-.213-.439-.539a.68.68 0 0 1 .299-.561c-.098.185.001.227.467-.003.195.139.909-.19 1.45-.119-.051.125.847-.394.714-.336-.025.094 1.158.235 1.089.443.401.087 1.189-.647 2.183-.311.963-.123 2.572.176 3.652.074 1.068.002 2.224.627 3.293.446 1.299-.164 1.774-.521 2.627-.272.112-.049.169-.095.194-.132.01.016.018.03.036.052.255-.315-.006-.41-.237-.353.099-.117-.152-.547.029-.726.173-.139.106-.73.151-1.737a.95.95 0 0 0-.148-.192c.01-.016.02-.05.019-.141-.299.002-.007-.888-.249-1.06.08.06.451-.045.156-.526-.221-.123-.47-.173-.62-.254-.072.004-.232.002-.302-.065.014-.047.001-.206-.134-.177zm93.241 4.803c1.568.191 3.359.469 4.927 1.011 1.246.383 2.125 1.541 3.168 2.594.728 1.002 1.457 2.274 2.116 3.438.496 1.358.563 2.598.728 4.076-.323 1.51-.45 3.899-.929 5.186-.61.958-.747 2.092-1.39 3.101 2.324 1.316 4.626 2.956 3.972 2.956-.343 0-.951-.327-1.35-.726h0c-.399-.399-1.267-.726-1.93-.726-.844 0-1.022-.114-.598-.383.576-.365.579-.434-.51-.572-.011.012-.018.024-.028.036a5.93 5.93 0 0 0-.574.614c.234.039.134.143-.291.418-.075.048-.132.069-.202.109-.183.168-.378.31-.636.369-.615.72-1.832 1.314-2.351 1.526-.844.106-.629.243-1.111-.072-1.044.013-1.828-.339-2.704-.026-.999-.212-2.405.132-2.772-.152-.673-.165-.572-.033-.449.039-1.048-.099-2.179-.164-2.319-.083-.378-.483-.697-.226-.695-.581.435-.658-.066-1.981.011-2.589.017-.879.187-1.369.047-2.485.192-.942-.289-2.004-.306-2.876-.212.142-.343.058-.547-.272-.13-.21.151-.481.623-.618.173-.554.584-1.06.338-1.641.297-.355-.275-1.275-.18-2.169-.08-.959.07-1.525.113-3.072.149-1.253-.143-2.389-.21-3.238.164-.791-.195-1.357-.053-1.835.316-.275.23-.344.733-.619.729-.364 1.199-.71 2.205-.565.49.281.03.182-.356.138.142.143-.31.126.574.114.528.226 1.82-.257 2.935-.425zm-79.07.122c-.282.29.323.136.29.351 1.727.128 2.039-.673 3.204-.143 1.094.048 2.646.585 3.086 1.024.806.27 1.433.896 1.58 1.781.466.803.24 1.793-.067 3.601-.203 1.908.064 3.245-.924 4.382-1.089 1.184-2.941.65-4.825 1.068-.929.149-1.8.156-2.631-.187-1.154.078-1.288.372-1.991.04-.164-.026-.877-.051-.988.024-.453.263-.257-.142-.459-.107-.316.033-.297-.082-.215-.178-.202.036-.414-.02-.464-.02-.068-.237.662-1.903.539-1.93-.06-.139-.094-2.711-.281-2.488-.044-1.713.446-3.04.192-4.13-.016-1.29-.013-1.78.069-2.421.016-.259.905-.117 1.456-.528.358-.12 1.1-.013 2.427-.139zm-3.939 11.656c.058-.01.116-.026.167-.056.069-.121-.083-.043-.167.056zm52.896-9.995c.052-.006.43.138.27.252.418.529.672 1.357 1.196 2.742.659.882 1.09 3.013 1.518 4.467.818 1.534 1.083 1.957 1.594 3.335.367 1.193.019 1.726.008 1.749-.51.193.283 1.362-.364 1.29-.58-.079-1.459-.047-2.776-.038.133-.253-.551.055-.619-.119.072.048-1.172.3-1.423.096-.672-.195-1.079.402-1.592.346-.072.062-.542.036-.577.044-.585-.53-1.257-.234-1.528-.626-.443-.263-.5-.539-.298-.822.369-.103.336-.812.992-2.985.044-.082.089-.181.133-.268-.163.042-.35.123-.615.288-1.376.853-1.722.645-.496-.297.606-.466.992-.627 1.386-.546.973-2.084 2.03-5.181 3.279-8.845-.087-.042-.106-.061-.088-.063zm-16.659 8.784c-.253.046-.392.394-.361.423-.422.28-.818-.326-1.748-.036-.76.177-1.154-.066-2.174.159-.932.204-1.86-.03-2.719.031-.819-.138-1.703-.349-1.963-.188-.357-.176-.462.626-.707.385-.565-.247-.444.229-1.235.135-.948-.208-1.006-.179-1.398-.174.105-.339-.773-.442-1.054-.254-.156-.059-.097-.451-.272-.215-.172.358-.447.637-.31.888-.347 1.303-.78 2.018-1.141 2.803-.079.63-.504.984-.292 1.219-.164.295.006.278.041.36a2.91 2.91 0 0 0 .834.793c.16.288 1.28-.314 1.515-.194.478.089 1.45-.603 2.209-.297.78.08 1.987-.003 2.639-.026.245-.132 1.424-.16 1.892-.338.136.336.065.343.393.339.171.042 1.048-.232 1.624-.301.395-.032.409.262.905.237.464.035 1.263-.19 1.362-.074.777.288.8.077.77-.014.182.139.796-.532.638-.689.003-.53-.191-.874.08-1.152-.099-.298-.26-.647-.138-.856.216-.946.459-.769.447-1.266-.084-.221-.045-.843.066-1.28.104.086.261.154.401.235.145-.218.332-.45.098-.376-.27-.058-.462-.272-.284-.277-.041-.007-.079-.007-.115-.001zm.301.653c-.026.04-.051.077-.071.114.071-.001.196.072.339.126-.053-.103-.156-.176-.268-.24zm-.071.114c-.053 0-.078.041-.054.167-.009-.039.017-.1.054-.167zm23.156 2.997c.43-.003.781.194.781.439 0 .545-.05.545-.893 0-.572-.37-.556-.433.112-.439zm1.228 2.225c.026-.019.2.109.538.374.419.328.953.478 1.186.334s.895-.085 1.471.133c.918.347.844.396-.611.403-1.017.004-1.879-.277-2.232-.729-.255-.327-.378-.494-.352-.514zm12.305.893c.108 0 .197.201.197.446s-.213.446-.473.446-.349-.201-.197-.446.365-.446.473-.446zm-9.217 1.842c.155.006.289.047.363.121.148.148-.115.254-.586.235-.52-.022-.626-.127-.27-.27.161-.065.338-.093.493-.086zm15.777 3.524c.43-.003.782.194.782.44 0 .545-.051.545-.893 0-.572-.37-.556-.434.112-.44zm2.977 1.835c.155.006.289.047.363.121.148.148-.115.254-.586.235-.52-.022-.626-.127-.27-.27.161-.065.338-.093.493-.086zm4.894.595a1.25 1.25 0 0 1 .255.073c.774.297.915.617.273.617-.231 0-.543-.199-.693-.441-.117-.19-.046-.279.165-.248zm-16.085.03c.045-.005.095.008.147.04.209.129.264.421.122.65-.361.584-.502.518-.502-.235 0-.268.096-.44.232-.455zm-122.374 7.556c9.728 44.12 49.111 77.199 96.126 77.199 45.997 0 84.684-31.664 95.448-74.351-.151.102-.222-.067-.222-.572 0-.358.171-.544.379-.415.03.019.05.047.073.071l.448-1.932h-6.464c-.078.145-.234.248-.417.248s-.275-.103-.264-.248h-3.109c-9.493 38.617-44.295 67.2-85.873 67.2s-76.379-28.582-85.872-67.2zm36.794 0c7.616 21.242 26.322 37.223 49.122 40.947-.346-.573-.519-1.127-.375-1.271.156-.156.284-.049.284.237 0 .231.267.689.626 1.116a63.38 63.38 0 0 0 9.675.746c27.32 0 50.606-17.437 59.332-41.776h-5.323c-2.556 6.505-6.258 12.429-10.849 17.537.518-.035.843.04.741.206-.107.173-.678.301-1.235.35a59.24 59.24 0 0 1-1.2 1.255c.011.033.029.065.029.1 0 .176-.216.325-.521.398a57.82 57.82 0 0 1-40.974 16.93c-21.393 0-40.056-11.549-50.114-28.756a2.15 2.15 0 0 1-.375-.181c-.595-.385-.595-.43 0-.408.01 0 .03.007.04.007-1.354-2.38-2.55-4.862-3.562-7.437zm146.645 1.294a.49.49 0 0 1 .174.07c.246.152.446.365.446.473s-.201.197-.446.197-.446-.213-.446-.473c0-.195.113-.294.273-.267zm2.656 4.311c.108 0 .197.201.197.446s-.213.446-.473.446-.349-.201-.197-.446.365-.446.473-.446zm-140.164 5.984a.46.46 0 0 1 .184.064c.619.383.504.651-.281.651-.383 0-.57-.204-.415-.454.116-.187.32-.284.512-.261zm-37.828.714c.26 0 .473.201.473.446s-.089.446-.197.446-.321-.201-.473-.446-.063-.446.197-.446zm-1.35.502c.155.006.289.047.363.121.148.148-.115.254-.586.235-.52-.022-.626-.127-.27-.27.161-.065.338-.093.493-.086zm39.798.476c.194-.004.426.003.693.024.92.071 1.755.377 1.856.68.207.621-.152.653-1.454.13-.491-.198-1.03-.281-1.197-.184s-.433-.034-.591-.289c-.138-.223.109-.346.692-.36zM18.906 205c.347.022.121.338-.636 1.002-.535.469-.826.602-.646.295.209-.358.037-.572-.481-.596-.463-.022-.245-.207.509-.432.631-.189 1.046-.282 1.255-.269zm134.973.897c.161.032.417.226.654.512.745.898.408 1.228-.38.372-.332-.36-.511-.746-.398-.859.028-.028.071-.035.125-.025zm-94.429 2.521c.26 0 .349.201.197.446s-.365.446-.473.446-.197-.201-.197-.446.213-.446.473-.446zm10.244 7.649a1.55 1.55 0 0 1 .558.093c.307.124.056.225-.558.225s-.865-.101-.558-.225a1.55 1.55 0 0 1 .558-.093zm29.457 14.678c.238 0 .317.301.175.67s-.336.67-.433.67-.175-.301-.175-.67.195-.67.433-.67zm68.096 10.266c.291-.018.172.131-.322.625-.858.858-1.374.932-1.117.16.102-.307.557-.63 1.01-.718.189-.037.332-.061.429-.067zm-3.363 3.576c.26 0 .473.201.473.446s-.089.446-.197.446-.321-.201-.473-.446-.063-.446.197-.446zm-4.756 3.733c.09-.046.229.013.428.171a5.41 5.41 0 0 0 1.228.689c.382.141.142.263-.558.283-.849.024-1.228-.188-1.228-.689 0-.259.04-.408.13-.454zm3.432.295c.461.022.963.172 1.125.434s-.206.404-.867.349c-.627-.052-1.141-.252-1.141-.444 0-.254.421-.361.883-.339zm-20.083 4.956c.283 0 .566.028.781.084.43.112.078.204-.781.204s-1.211-.092-.781-.204c.215-.056.498-.084.781-.084zm-6.467.735a5.4 5.4 0 0 1 .7.029c2.084.204 2.595.82.645.778-.865-.019-1.577-.235-1.581-.481s-.221-.145-.482.223c-.421.595-.454.595-.291 0 .096-.352.408-.528 1.009-.549zm1.383 4.135c.451-.007 1.076.193 1.708.671.802.607.636.882-.408.675-.239-.047-.057.331.404.84.879.971.422 1.288-.507.351a21.3 21.3 0 0 0-1.228-1.117c-.99-.825-.722-1.409.03-1.421zm-2.731.893c.246 0 .748.195 1.117.433s.469.433.223.433-.748-.195-1.117-.433-.469-.433-.223-.433zm1.117 1.664c1.936.032 2.232.099 2.232.499 0 .215-1.105.391-2.456.391s-2.456-.176-2.456-.391c0-.4.71-.532 2.679-.499zM66.755 98.656l1.219 1.965-.702.436q-.553-.512-1.04-.711-.491-.206-.936-.146-.444.06-.934.363-.731.453-1.002 1.299-.268.835.013 2.016.277 1.174 1.135 2.558.863 1.391 1.744 2.209.877.812 1.715.99.833.171 1.599-.304.582-.361.849-.753.263-.399.287-.915.031-.52-.178-1.364l.702-.436 1.259 2.029q-.557.591-1.206 1.112-.638.524-1.475 1.043-1.802 1.118-3.481.47-1.679-.648-3.18-3.067-.942-1.518-1.175-2.955-.226-1.442.316-2.642.542-1.201 1.833-2.002.646-.401 1.236-.669.586-.275 1.403-.526z"/><path d="M76.359 105.505l1.996-.894q.328-.147.532-.284.204-.137.322-.282.122-.156.183-.347.065-.203.077-.483.012-.28-.043-.667-.05-.398-.209-1.16l.77-.345 1.22 3.131-6.85 3.069-.167-.373q.418-.334.513-.55.092-.224.015-.519-.07-.298-.322-.862l-2.953-6.591q-.236-.526-.38-.745-.147-.227-.297-.315-.145-.1-.324-.111-.182-.019-.577.039l-.167-.373 3.208-1.437.167.373q-.294.242-.405.383-.106.13-.143.293-.037.163.03.435.067.272.313.821zm11.835-3.49l-.113-.393q.378-.196.543-.348.173-.154.22-.35.045-.204-.038-.493-.079-.273-.233-.567-.157-.302-.391-.661l-.596-.949-3.738 1.079-.046.865q-.037.654-.013.977.024.323.096.572.139.481.444.636.314.153.84.079l.113.393-3.425.989-.113-.393q.428-.202.628-.746.207-.546.279-1.471l.782-9.846 1.267-.366 5.309 8.157q.373.57.612.857.247.285.509.409.262.124.648.108l.113.393zm-4.331-3.442l3.353-.968-3.018-4.734zm9.342-.365q.272.703.615 1.083.343.38.819.521.475.133 1.177.029.966-.142 1.404-.721.446-.58.304-1.547-.091-.62-.368-1.009-.277-.39-.819-.69-.542-.3-1.614-.649-1.037-.337-1.665-.709-.63-.38-.99-.876-.352-.497-.445-1.133-.136-.925.194-1.666.337-.75 1.117-1.244.788-.496 1.87-.655.628-.092 1.232-.114.613-.023 1.547.076l.328 2.23-.818.12q-.297-.699-.646-1.061-.349-.362-.76-.462-.413-.108-1.032-.017-.537.079-.937.34-.392.26-.58.701-.19.433-.108.986.086.586.352.961.274.373.771.655.497.281 1.436.582 1.135.373 1.78.742.653.368 1.062.907.415.53.53 1.306.128.867-.056 1.51-.185.635-.617 1.086-.424.442-1.076.715-.645.264-1.446.381-1.297.191-3.055.002l-.333-2.263zm8.731-1.049q.186.73.481 1.148.295.418.751.615.456.189 1.165.17.977-.026 1.481-.548.513-.523.487-1.499-.016-.626-.245-1.046-.228-.42-.73-.783-.502-.363-1.525-.837-.989-.459-1.569-.903-.58-.453-.878-.988-.29-.535-.306-1.178-.025-.935.392-1.631.424-.704 1.257-1.102.842-.398 1.935-.426.634-.017 1.237.034.611.051 1.527.261l.059 2.254-.826.022q-.211-.729-.514-1.131-.303-.401-.699-.55-.397-.157-1.023-.14-.543.014-.971.226-.42.211-.66.627-.24.407-.225.966.016.593.235.996.228.403.688.742.46.339 1.356.75 1.082.506 1.679.95.605.444.946 1.028.349.576.37 1.36.023.876-.237 1.493-.26.608-.742 1.005-.474.388-1.154.581-.672.185-1.481.206-1.31.034-3.033-.363l-.06-2.287zm10.481.667q-.04.558-.026.818.023.261.095.417.081.157.24.268.168.113.543.24l-.029.408-3.514-.254.029-.408q.526-.096.712-.241.187-.154.259-.45.08-.296.125-.912l.521-7.203q.042-.575.019-.836-.022-.269-.112-.418-.081-.157-.233-.251-.152-.103-.527-.239l.029-.408 3.514.254-.029.408q-.373.065-.546.145-.165.08-.275.214-.101.127-.171.398-.061.272-.103.846zm12.344-7.571l-.443 2.482-.805-.144q-.081-.591-.192-.967-.103-.375-.259-.589-.149-.213-.382-.331-.233-.118-.636-.19l-2.408-.43-.799 4.471 1.693.302q.362.065.588-.014.228-.087.409-.343.19-.254.417-.816l.773.138-.62 3.468-.773-.138q-.023-.581-.113-.885-.088-.313-.265-.463-.167-.157-.545-.225l-1.693-.302-.576 3.222q-.088.493-.083.799.005.306.105.502.101.196.306.326.207.122.523.255l-.072.403-3.649-.652.072-.403q.533-.04.734-.166.202-.134.304-.421.11-.286.219-.894l1.27-7.109q.101-.567.106-.829.006-.27-.068-.428-.064-.164-.205-.274-.14-.118-.499-.293l.072-.403zm2.52 10.395q-.156.537-.196.795-.032.26.006.428.046.17.179.313.141.145.481.348l-.114.393-3.384-.981.114-.393q.534.016.747-.088.215-.112.347-.386.14-.272.312-.866l2.01-6.937q.16-.553.192-.814.034-.268-.022-.432-.046-.17-.175-.294-.127-.132-.465-.344l.114-.393 3.384.981-.114.393q-.378-.014-.564.028-.178.044-.314.152-.125.103-.25.353-.117.253-.277.806zm13.878-4.711l-.964 2.33-.756-.313q.041-.426.035-.762-.005-.337-.057-.584-.051-.247-.165-.43-.106-.18-.306-.308-.197-.136-.498-.26l-2.438-1.009-1.673 4.043 1.651.683q.339.14.571.128.234-.02.454-.201.227-.177.547-.623l.725.3-1.226 2.963-.725-.3q.083-.508.048-.793-.032-.293-.176-.47-.136-.174-.499-.324l-1.651-.683-1.842 4.452 2.399.993q.378.156.635.19.268.029.501-.055.237-.092.473-.292.236-.2.433-.435.207-.239.579-.7l.764.316-1.267 2.647-7.144-2.956.156-.378q.529.075.752-.005.226-.087.387-.346.169-.255.405-.826l2.761-6.673q.22-.532.281-.787.064-.263.025-.432-.027-.174-.142-.312-.111-.146-.425-.393l.156-.378zm-2.515 11.399l.211-.35q.381.113.571.12.19.008.342-.066.152-.074.326-.281.174-.207.472-.7l3.733-6.182q.302-.5.4-.743.102-.25.09-.424-.005-.169-.098-.322-.088-.161-.368-.456l.211-.35 3.131 1.89q1.351.816 2.027 1.634.688.815.932 1.752.244.937.014 1.979-.225 1.035-.946 2.228-.729 1.208-1.565 1.962-.824.751-1.728 1.053-.785.267-1.662.216-.723-.046-1.518-.361-.795-.314-1.989-1.035zm2.581.652q.269.201.826.538.6.363 1.133.547.532.185 1.048.203.515.019 1.051-.175.54-.2 1.031-.577.495-.384.948-.94.46-.551.896-1.273.876-1.451 1.015-2.635.151-1.187-.355-2.077-.499-.886-1.556-1.525-.486-.293-.939-.528zM63.336 240.701l.218-.346q.398.152.62.174.23.027.408-.068.183-.102.343-.356.152-.24.269-.551.122-.318.234-.731l.314-1.076-3.29-2.077-.677.54q-.513.407-.739.639-.226.233-.364.451-.267.424-.18.755.094.336.499.68l-.218.346-3.015-1.903.218-.346q.435.186.975-.027.546-.208 1.285-.769l7.878-5.957 1.115.704-2.569 9.387q-.178.658-.234 1.027-.049.374.032.652.081.278.35.556l-.218.346zm-.304-5.524l2.951 1.863 1.533-5.401zm4.61 8.102l.171-.372q.391.07.581.056.19-.013.333-.104.143-.09.293-.316.15-.225.391-.748l3.022-6.559q.245-.531.315-.783.074-.26.042-.431-.024-.167-.133-.31-.106-.15-.417-.413l.171-.372 3.321 1.53q1.433.66 2.196 1.398.774.734 1.121 1.638.346.904.235 1.965-.108 1.053-.692 2.32-.59 1.282-1.337 2.123-.735.838-1.6 1.239-.751.353-1.627.399-.724.034-1.549-.19-.825-.224-2.092-.807zm2.638.36q.289.17.881.443.637.293 1.186.418.549.124 1.064.086.514-.039 1.026-.29.515-.259.961-.688.449-.436.837-1.039.396-.599.748-1.365.709-1.539.716-2.731.018-1.196-.584-2.025-.594-.825-1.716-1.342-.516-.238-.992-.42zm13.666-5.881l-.122.391q-.387-.05-.608-.014-.221.036-.371.182-.15.146-.242.441-.084.271-.12.61-.033.331-.035.759l-.16 7.086 4.328-5.84q.095-.137.195-.289.1-.153.181-.302.09-.147.135-.264.053-.115.085-.218.149-.478-.007-.763-.146-.29-.647-.534l.122-.391 3.348 1.043-.122.391q-.352-.022-.598.067-.246.089-.55.362-.296.275-.803.922l-6.059 7.802-1.044-.325.081-9.725q.011-.792-.054-1.145-.063-.361-.207-.572-.142-.219-.452-.403l.122-.391z"/><path d="M97.356 240.877l-.45 2.481-.805-.146q-.05-.425-.127-.753-.076-.328-.179-.558-.102-.231-.253-.385-.142-.153-.365-.236-.221-.091-.541-.149l-2.596-.471-.78 4.305 1.758.319q.361.065.585.004.225-.07.401-.292.184-.221.403-.725l.772.14-.572 3.155-.772-.14q-.026-.514-.121-.786-.094-.28-.271-.423-.17-.141-.556-.211l-1.758-.319-.859 4.74 2.555.463q.403.073.661.052.268-.028.479-.159.212-.14.401-.386.189-.246.331-.517.152-.278.418-.807l.813.147-.679 2.855-7.607-1.379.073-.403q.533-.039.734-.164.202-.133.305-.42.111-.285.221-.893l1.288-7.106q.103-.567.108-.829.007-.27-.067-.428-.064-.164-.205-.275-.14-.119-.498-.294l.073-.403zm2.824 6.671l-.168 2.834q-.036.6-.01.878.034.27.117.417.084.139.237.24.153.093.53.224l-.024.408-3.517-.209.024-.408q.525-.103.709-.251.185-.156.253-.453.076-.297.113-.913l.428-7.209q.034-.575.008-.836-.026-.269-.117-.417-.083-.155-.236-.248-.153-.101-.53-.232l.024-.408 4.126.245q1.95.116 2.875.881.925.766.836 2.258-.068 1.142-.749 1.904-.673.763-1.958 1.138l-.004.067q.496.239.831.652.344.405.737 1.248l.669 1.411q.289.619.504.95.215.331.446.512.232.181.628.271l-.024.408-2.309-.137q-.291-.461-.544-.986-.253-.525-.497-1.067l-.651-1.435q-.296-.653-.495-.966-.191-.312-.367-.44-.168-.135-.374-.189-.197-.062-.605-.086zm.336-5.667l-.294 4.951.942.056q.725.043 1.181-.03.456-.082.857-.351.401-.269.656-.772.265-.511.31-1.27.047-.792-.197-1.333-.236-.541-.769-.849-.534-.308-1.467-.363-.75-.044-1.219-.039zm5.754-.412l9.017-.553.178 2.9-.817.05q-.227-.705-.436-1.111-.201-.406-.414-.61-.213-.204-.452-.282-.231-.078-.689-.05l-1.058.065.523 8.534q.03.492.098.78.076.288.195.456.127.16.325.248.197.08.611.147l.025.408-3.808.234-.025-.408q.246-.074.434-.152.188-.078.299-.177.119-.108.185-.262.074-.155.1-.416.034-.261.003-.761l-.523-8.534-1.05.064q-.392.024-.645.115-.245.09-.447.345-.202.247-.359.7-.148.444-.266 1.12l-.825.051zm13.449 8.068q.087.553.16.803.081.249.187.385.114.134.295.207.189.072.584.111l.063.404-3.481.546-.063-.404q.491-.212.639-.396.147-.192.15-.497.011-.306-.085-.916l-1.119-7.135q-.089-.569-.171-.818-.083-.257-.204-.382-.114-.134-.284-.192-.171-.066-.567-.114l-.063-.404 3.481-.546.063.404q-.349.148-.499.264-.142.115-.219.271-.07.146-.077.426.001.279.091.848zm3.403-1.128q.337.674.715 1.02.377.346.865.441.486.087 1.175-.082.949-.233 1.33-.851.389-.62.156-1.569-.149-.608-.462-.97-.312-.362-.88-.609-.568-.247-1.669-.493-1.064-.237-1.725-.548-.663-.319-1.068-.778-.397-.461-.55-1.086-.223-.908.035-1.677.264-.779.994-1.344.737-.568 1.8-.829.616-.151 1.216-.23.608-.081 1.547-.07l.538 2.189-.803.197q-.362-.668-.743-.995-.381-.328-.8-.388-.421-.069-1.029.081-.527.129-.901.428-.366.296-.511.753-.148.449-.014.992.141.576.442.923.308.346.83.579.521.233 1.484.444 1.165.264 1.842.571.685.305 1.143.803.464.488.651 1.25.209.851.087 1.509-.124.649-.511 1.14-.381.48-1.004.814-.617.323-1.403.517-1.273.313-3.041.291l-.546-2.222zm9.825-2.258q.179.53.294.764.122.232.25.347.135.113.325.154.198.039.594.011l.131.388-3.338 1.129-.131-.388q.448-.292.563-.499.113-.214.064-.515-.041-.303-.239-.889l-2.314-6.841q-.185-.546-.307-.778-.125-.24-.266-.342-.135-.113-.312-.141-.18-.036-.578-.016l-.131-.388 3.338-1.129.131.388q-.319.205-.447.345-.121.138-.17.304-.044.156-.003.433.049.274.233.82zm7.742-5.84q.482.33.821.587.347.254.739.589l.099-.045q-.251-.445-.912-1.805-.665-1.367-1.174-2.475l-.732-1.593q-.24-.523-.382-.752-.142-.229-.285-.319-.135-.094-.314-.104-.175-.021-.569.041l-.171-.372 2.731-1.255.171.372q-.3.248-.409.39-.102.139-.137.302-.028.16.038.423.066.264.32.818l3.907 8.505-.948.436-7.481-5.145q-.698-.479-1.004-.706-.306-.227-.586-.456l-.129.059q.321.56 1.048 2.082.723 1.514 1.42 3.032l.711 1.548q.234.508.372.73.146.218.285.319.146.098.34.12.201.018.592-.051l.171.372-2.769 1.272-.171-.372q.415-.337.508-.555.09-.225.01-.519-.072-.298-.33-.859l-3.015-6.563q-.24-.524-.386-.741-.149-.225-.3-.313-.146-.098-.325-.108-.182-.017-.577.044l-.171-.372 2.375-1.091zm13.029-2.426l-.456.496-.863-.224q-.28.572-.696 1.024-.416.451-1.065.862-1.785 1.13-3.46.481-1.68-.656-3.207-3.068-.951-1.503-1.176-2.951-.225-1.448.315-2.64.536-1.199 1.784-1.989.656-.415 1.312-.722.651-.314 1.508-.599l1.228 1.94-.698.442q-.592-.514-1.077-.702-.489-.195-.949-.11-.458.073-1.015.425-.769.487-1.035 1.347-.266.86.022 2.032.29 1.16 1.152 2.522.875 1.383 1.764 2.194.896.806 1.749.968.849.154 1.632-.341.832-.527 1.007-1.141.17-.621-.308-1.376l-.268-.423q-.402-.635-.651-.872-.242-.242-.51-.29-.268-.048-.718.099l-.219-.346 2.85-1.804.219.346q-.2.245-.256.439-.06.186-.028.393.039.202.163.46.126.246.403.684z"/></svg>